# xmcd CD database file
#
# Track frame offsets:
#	150
#	16198
#	30648
#	50294
#	69401
#	84109
#	113296
#	127621
#	146083
#	168808
#	192600
#	209514
#	226971
#	247848
#	263903
#
# Disc length: 3708 seconds
#
# Revision: 0
# Processed by: cddbd v1.5.2PL0 Copyright (c) Steve Scherf et al.
# Submitted via: CDex 1.70beta2
#
DISCID=b60e7a0f
DTITLE=Travis Tritt - Ten FeetTall And Bulletproof
DYEAR=2011
DGENRE=Country
TTITLE0=Ten FeetTall And Bulletproof
TTITLE1=Walkin' All Over My Heart
TTITLE2=Poolish Pride
TTITLE3=Outlaws Like Us
TTITLE4=Hard Times And Misery
TTITLE5=Tell Me I Was Dreaming
TTITLE6=Wishful Thinking
TTITLE7=Between An Old Memory And Me
TTITLE8=No Vacation From The Blues
TTITLE9=Southern Justice
TTITLE10=Tell Me I Was Dreaming (Singel Edit)
TTITLE11=Only You And You Alone
TTITLE12=Sometimes She Forgets
TTITLE13=Ten FeetTall And Bulletproof (Instrumental Version)
TTITLE14=Wishful Thinking (Instrumental Version) 
EXTD=YEAR: 2011
EXTT0=
EXTT1=
EXTT2=
EXTT3=
EXTT4=
EXTT5=
EXTT6=
EXTT7=
EXTT8=
EXTT9=
EXTT10=
EXTT11=
EXTT12=
EXTT13=
EXTT14=
PLAYORDER=
